# xmcd
#
# Track frame offsets:
#	150
#	23040
#	45071
#	60544
#	76342
#	100903
#	117886
#	130607
#	148251
#	163713
#	193590
#	208935
#	223597
#	239749
#	262164
#	280422
#	296078
#
# Disc length: 4167 seconds
#
# Revision: 0
# Processed by: cddbd v1.5.2PL0 Copyright (c) Steve Scherf et al.
# Submitted via: dBpowerAMP V4.0
#
DISCID=05104511
DTITLE=la banda de carlitos - seguimos mas alla
DYEAR=1900
DGENRE=
TTITLE0=llegamos los lbceros - duraznito - mira que borracho que estoy
TTITLE1=buena suerte
TTITLE2=se menea - el puñetazo
TTITLE3=tu falso amor
TTITLE4=tonta - yo soy aquel
TTITLE5=quiero un amor
TTITLE6=no vayas a llorar
TTITLE7=me voy
TTITLE8=el solterito
TTITLE9=como hare - carta del corazon
TTITLE10=dale mami
TTITLE11=el soltero
TTITLE12=me dejaste solo
TTITLE13=me tiraste al mar - pagare
TTITLE14=me desespero
TTITLE15=pone la banda
TTITLE16=no puedo
EXTD=
EXTT0=
EXTT1=
EXTT2=
EXTT3=
EXTT4=
EXTT5=
EXTT6=
EXTT7=
EXTT8=
EXTT9=
EXTT10=
EXTT11=
EXTT12=
EXTT13=
EXTT14=
EXTT15=
EXTT16=
PLAYORDER=
